<?xml version="1.0" standalone="no"?>
<!DOCTYPE svg PUBLIC "-//W3C//DTD SVG 1.1//EN" "http://www.w3.org/Graphics/SVG/1.1/DTD/svg11.dtd" >
<svg xmlns="http://www.w3.org/2000/svg" xmlns:xlink="http://www.w3.org/1999/xlink" version="1.1">
<metadata>
Created by FontForge 20160405 at Wed Aug 24 14:21:42 2016
 By www-data
copyright missing
</metadata>
<defs>
<font id="KX3-bottom-LCD-monospaced-Regular" horiz-adv-x="550" >
  <font-face 
    font-family="KX3-bottom-LCD-monospaced"
    font-weight="400"
    font-stretch="normal"
    units-per-em="1000"
    panose-1="0 0 5 0 0 0 0 0 0 0"
    ascent="800"
    descent="-200"
    cap-height="700"
    bbox="0 -200 480.127 800"
    underline-thickness="50"
    underline-position="-100"
    unicode-range="U+0020-20AC"
  />
<missing-glyph horiz-adv-x="500" 
d="M410 800v-1000h-317v1000h317zM333 733h-165v-33h65v-37h-66v-33h166v33h-66v37h66v33zM267 604h-100v-104h166v34h-66v70zM233 570v-36h-33v36h33zM333 473h-166v-33h66v-37h-66v-33h100v70h66v33zM333 413h-33v-66h-133v-34h166v100zM333 291h-100v-56h34v23h33v-47
h-100v80h-33v-113h166v113zM333 118h-166v-113h166v113zM300 85v-47h-100v47h100zM333 -18h-166v-33h70l-70 -47v-33h166v33h-102l70 47h32v33z" />
    <glyph glyph-name=".notdef" horiz-adv-x="500" 
d="M410 800v-1000h-317v1000h317zM333 733h-165v-33h65v-37h-66v-33h166v33h-66v37h66v33zM267 604h-100v-104h166v34h-66v70zM233 570v-36h-33v36h33zM333 473h-166v-33h66v-37h-66v-33h100v70h66v33zM333 413h-33v-66h-133v-34h166v100zM333 291h-100v-56h34v23h33v-47
h-100v80h-33v-113h166v113zM333 118h-166v-113h166v113zM300 85v-47h-100v47h100zM333 -18h-166v-33h70l-70 -47v-33h166v33h-102l70 47h32v33z" />
    <glyph glyph-name="A" unicode="A" 
d="M437 700c3 0 5 0 8 -1l-45 -64h-252l-39 64c3 0 7 1 11 1h317zM86 688l44 -72l-27 -228l-34 -34l-31 31l29 268c1 14 9 26 19 35zM468 688c8 -9 13 -21 12 -35l-28 -262l-28 -28l-36 35l26 214zM105 380l-35 -36l21 -22h100l38 27v9l-29 22h-95zM301 380l-43 -20l-1 -11
l36 -27h88l35 35l-23 23h-92zM420 344l24 -24l-29 -273c-2 -13 -9 -25 -19 -34l-45 73l26 214zM66 335l28 -27l-29 -242l-53 -53c-8 9 -12 21 -11 34l27 250z" />
    <glyph glyph-name="B" unicode="B" 
d="M437 700c3 0 5 0 8 -1l-45 -64h-252l-39 64c3 0 7 1 11 1h317zM468 688c8 -9 13 -21 12 -35l-28 -262l-28 -28l-36 35l26 214zM244 619l-10 -139l5 -149l-35 -89l-29 -170h58l22 224l-7 70l53 140l7 113h-64zM301 380l-43 -20l-1 -11l36 -27h88l35 35l-23 23h-92z
M420 344l24 -24l-29 -273c-2 -13 -9 -25 -19 -34l-45 73l26 214zM336 63l38 -61c-4 -1 -8 -2 -13 -2h-316c-4 0 -7 0 -10 1l62 62h239z" />
    <glyph glyph-name="C" unicode="C" 
d="M437 700c3 0 5 0 8 -1l-45 -64h-252l-39 64c3 0 7 1 11 1h317zM86 688l44 -72l-27 -228l-34 -34l-31 31l29 268c1 14 9 26 19 35zM66 335l28 -27l-29 -242l-53 -53c-8 9 -12 21 -11 34l27 250zM336 63l38 -61c-4 -1 -8 -2 -13 -2h-316c-4 0 -7 0 -10 1l62 62h239z" />
    <glyph glyph-name="D" unicode="D" 
d="M437 700c3 0 5 0 8 -1l-45 -64h-252l-39 64c3 0 7 1 11 1h317zM468 688c8 -9 13 -21 12 -35l-28 -262l-28 -28l-36 35l26 214zM244 619l-10 -139l5 -149l-35 -89l-29 -170h58l22 224l-7 70l53 140l7 113h-64zM420 344l24 -24l-29 -273c-2 -13 -9 -25 -19 -34l-45 73
l26 214zM336 63l38 -61c-4 -1 -8 -2 -13 -2h-316c-4 0 -7 0 -10 1l62 62h239z" />
    <glyph glyph-name="E" unicode="E" 
d="M437 700c3 0 5 0 8 -1l-45 -64h-252l-39 64c3 0 7 1 11 1h317zM86 688l44 -72l-27 -228l-34 -34l-31 31l29 268c1 14 9 26 19 35zM105 380l-35 -36l21 -22h100l38 27v9l-29 22h-95zM301 380l-43 -20l-1 -11l36 -27h88l35 35l-23 23h-92zM66 335l28 -27l-29 -242l-53 -53
c-8 9 -12 21 -11 34l27 250zM336 63l38 -61c-4 -1 -8 -2 -13 -2h-316c-4 0 -7 0 -10 1l62 62h239z" />
    <glyph glyph-name="F" unicode="F" 
d="M437 700c3 0 5 0 8 -1l-45 -64h-252l-39 64c3 0 7 1 11 1h317zM86 688l44 -72l-27 -228l-34 -34l-31 31l29 268c1 14 9 26 19 35zM105 380l-35 -36l21 -22h100l38 27v9l-29 22h-95zM301 380l-43 -20l-1 -11l36 -27h88l35 35l-23 23h-92zM66 335l28 -27l-29 -242l-53 -53
c-8 9 -12 21 -11 34l27 250z" />
    <glyph glyph-name="G" unicode="G" 
d="M437 700c3 0 5 0 8 -1l-45 -64h-252l-39 64c3 0 7 1 11 1h317zM86 688l44 -72l-27 -228l-34 -34l-31 31l29 268c1 14 9 26 19 35zM301 380l-43 -20l-1 -11l36 -27h88l35 35l-23 23h-92zM420 344l24 -24l-29 -273c-2 -13 -9 -25 -19 -34l-45 73l26 214zM66 335l28 -27
l-29 -242l-53 -53c-8 9 -12 21 -11 34l27 250zM336 63l38 -61c-4 -1 -8 -2 -13 -2h-316c-4 0 -7 0 -10 1l62 62h239z" />
    <glyph glyph-name="H" unicode="H" 
d="M86 688l44 -72l-27 -228l-34 -34l-31 31l29 268c1 14 9 26 19 35zM468 688c8 -9 13 -21 12 -35l-28 -262l-28 -28l-36 35l26 214zM105 380l-35 -36l21 -22h100l38 27v9l-29 22h-95zM301 380l-43 -20l-1 -11l36 -27h88l35 35l-23 23h-92zM420 344l24 -24l-29 -273
c-2 -13 -9 -25 -19 -34l-45 73l26 214zM66 335l28 -27l-29 -242l-53 -53c-8 9 -12 21 -11 34l27 250z" />
    <glyph glyph-name="I" unicode="I" 
d="M437 700c3 0 5 0 8 -1l-45 -64h-252l-39 64c3 0 7 1 11 1h317zM244 619l-10 -139l5 -149l-35 -89l-29 -170h58l22 224l-7 70l53 140l7 113h-64zM336 63l38 -61c-4 -1 -8 -2 -13 -2h-316c-4 0 -7 0 -10 1l62 62h239z" />
    <glyph glyph-name="J" unicode="J" 
d="M468 688c8 -9 13 -21 12 -35l-28 -262l-28 -28l-36 35l26 214zM420 344l24 -24l-29 -273c-2 -13 -9 -25 -19 -34l-45 73l26 214zM66 335l28 -27l-29 -242l-53 -53c-8 9 -12 21 -11 34l27 250zM336 63l38 -61c-4 -1 -8 -2 -13 -2h-316c-4 0 -7 0 -10 1l62 62h239z" />
    <glyph glyph-name="K" unicode="K" 
d="M103 388l-34 -34l-31 31l29 268c1 14 9 26 19 35l44 -72zM375 619h27l-11 -95l-69 -125l-60 -28l50 129zM105 380h95l29 -22v-9l-38 -27h-100l-21 22zM28 297l38 38l28 -27l-29 -242l-53 -53c-8 9 -12 21 -11 34zM262 325c1 -4 42 -25 42 -25l47 -138l-12 -90h-29
l-44 191z" />
    <glyph glyph-name="L" unicode="L" 
d="M86 688l44 -72l-27 -228l-34 -34l-31 31l29 268c1 14 9 26 19 35zM66 335l28 -27l-29 -242l-53 -53c-8 9 -12 21 -11 34l27 250zM336 63l38 -61c-4 -1 -8 -2 -13 -2h-316c-4 0 -7 0 -10 1l62 62h239z" />
    <glyph glyph-name="M" unicode="M" 
d="M86 688l44 -72l-27 -228l-34 -34l-31 31l29 268c1 14 9 26 19 35zM468 688c8 -9 13 -21 12 -35l-28 -262l-28 -28l-36 35l26 214zM142 619l-7 -85l55 -141l39 -22l-10 103l-50 145h-27zM375 619l-63 -119l-50 -129l60 28l69 125l11 95h-27zM420 344l24 -24l-29 -273
c-2 -13 -9 -25 -19 -34l-45 73l26 214zM66 335l28 -27l-29 -242l-53 -53c-8 9 -12 21 -11 34l27 250z" />
    <glyph glyph-name="N" unicode="N" 
d="M67 653c1 14 9 26 19 35l44 -72l-27 -228l-34 -34l-31 31zM468 688c8 -9 13 -21 12 -35l-28 -262l-28 -28l-36 35l26 214zM169 619l50 -145l10 -103l-39 22l-55 141l7 85h27zM377 300l43 44l24 -24l-29 -273c-2 -13 -9 -25 -19 -34l-45 73zM28 297l38 38l28 -27l-29 -242
l-53 -53c-8 9 -12 21 -11 34zM304 300l47 -138l-12 -90h-29l-44 191l-4 62c1 -4 42 -25 42 -25z" />
    <glyph glyph-name="O" unicode="O" 
d="M437 700c3 0 5 0 8 -1l-45 -64h-252l-39 64c3 0 7 1 11 1h317zM86 688l44 -72l-27 -228l-34 -34l-31 31l29 268c1 14 9 26 19 35zM468 688c8 -9 13 -21 12 -35l-28 -262l-28 -28l-36 35l26 214zM420 344l24 -24l-29 -273c-2 -13 -9 -25 -19 -34l-45 73l26 214zM66 335
l28 -27l-29 -242l-53 -53c-8 9 -12 21 -11 34l27 250zM336 63l38 -61c-4 -1 -8 -2 -13 -2h-316c-4 0 -7 0 -10 1l62 62h239z" />
    <glyph glyph-name="P" unicode="P" 
d="M437 700c3 0 5 0 8 -1l-45 -64h-252l-39 64c3 0 7 1 11 1h317zM86 688l44 -72l-27 -228l-34 -34l-31 31l29 268c1 14 9 26 19 35zM468 688c8 -9 13 -21 12 -35l-28 -262l-28 -28l-36 35l26 214zM105 380l-35 -36l21 -22h100l38 27v9l-29 22h-95zM301 380l-43 -20l-1 -11
l36 -27h88l35 35l-23 23h-92zM66 335l28 -27l-29 -242l-53 -53c-8 9 -12 21 -11 34l27 250z" />
    <glyph glyph-name="Q" unicode="Q" 
d="M400 635h-252l-39 64c3 0 7 1 11 1h317c3 0 5 0 8 -1zM103 388l-34 -34l-31 31l29 268c1 14 9 26 19 35l44 -72zM468 688c8 -9 13 -21 12 -35l-28 -262l-28 -28l-36 35l26 214zM377 300l43 44l24 -24l-29 -273c-2 -13 -9 -25 -19 -34l-45 73zM94 308l-29 -242l-53 -53
c-8 9 -12 21 -11 34l27 250l38 38zM262 325c1 -4 42 -25 42 -25l47 -138l-12 -90h-29l-44 191zM97 63h239l38 -61c-4 -1 -8 -2 -13 -2h-316c-4 0 -7 0 -10 1z" />
    <glyph glyph-name="R" unicode="R" 
d="M400 635h-252l-39 64c3 0 7 1 11 1h317c3 0 5 0 8 -1zM103 388l-34 -34l-31 31l29 268c1 14 9 26 19 35l44 -72zM468 688c8 -9 13 -21 12 -35l-28 -262l-28 -28l-36 35l26 214zM105 380h95l29 -22v-9l-38 -27h-100l-21 22zM301 380h92l23 -23l-35 -35h-88l-36 27l1 11z
M28 297l38 38l28 -27l-29 -242l-53 -53c-8 9 -12 21 -11 34zM262 325c1 -4 42 -25 42 -25l47 -138l-12 -90h-29l-44 191z" />
    <glyph glyph-name="S" unicode="S" 
d="M437 700c3 0 5 0 8 -1l-45 -64h-252l-39 64c3 0 7 1 11 1h317zM142 619l-7 -85l55 -141l39 -22l-10 103l-50 145h-27zM301 380l-43 -20l-1 -11l36 -27h88l35 35l-23 23h-92zM420 344l24 -24l-29 -273c-2 -13 -9 -25 -19 -34l-45 73l26 214zM336 63l38 -61
c-4 -1 -8 -2 -13 -2h-316c-4 0 -7 0 -10 1l62 62h239z" />
    <glyph glyph-name="T" unicode="T" 
d="M437 700c3 0 5 0 8 -1l-45 -64h-252l-39 64c3 0 7 1 11 1h317zM244 619l-10 -139l5 -149l-35 -89l-29 -170h58l22 224l-7 70l53 140l7 113h-64z" />
    <glyph glyph-name="U" unicode="U" 
d="M86 688l44 -72l-27 -228l-34 -34l-31 31l29 268c1 14 9 26 19 35zM468 688c8 -9 13 -21 12 -35l-28 -262l-28 -28l-36 35l26 214zM420 344l24 -24l-29 -273c-2 -13 -9 -25 -19 -34l-45 73l26 214zM66 335l28 -27l-29 -242l-53 -53c-8 9 -12 21 -11 34l27 250zM336 63
l38 -61c-4 -1 -8 -2 -13 -2h-316c-4 0 -7 0 -10 1l62 62h239z" />
    <glyph glyph-name="V" unicode="V" 
d="M86 688l44 -72l-27 -228l-34 -34l-31 31l29 268c1 14 9 26 19 35zM375 619l-63 -119l-50 -129l60 28l69 125l11 95h-27zM66 335l28 -27l-29 -242l-53 -53c-8 9 -12 21 -11 34l27 250zM162 296l-71 -130l-13 -94h31l69 161l40 89z" />
    <glyph glyph-name="W" unicode="W" 
d="M103 388l-34 -34l-31 31l29 268c1 14 9 26 19 35l44 -72zM468 688c8 -9 13 -21 12 -35l-28 -262l-28 -28l-36 35l26 214zM377 300l43 44l24 -24l-29 -273c-2 -13 -9 -25 -19 -34l-45 73zM66 335l28 -27l-29 -242l-53 -53c-8 9 -12 21 -11 34l27 250zM304 300l47 -138
l-12 -90h-29l-44 191l-4 62c1 -4 42 -25 42 -25zM91 166l71 130l56 26l-40 -89l-69 -161h-31z" />
    <glyph glyph-name="X" unicode="X" 
d="M169 619l50 -145l10 -103l-39 22l-55 141l7 85h27zM375 619h27l-11 -95l-69 -125l-60 -28l50 129zM262 325c1 -4 42 -25 42 -25l47 -138l-12 -90h-29l-44 191zM91 166l71 130l56 26l-40 -89l-69 -161h-31z" />
    <glyph glyph-name="Y" unicode="Y" 
d="M86 688l44 -72l-27 -228l-34 -34l-31 31l29 268c1 14 9 26 19 35zM468 688c8 -9 13 -21 12 -35l-28 -262l-28 -28l-36 35l26 214zM105 380l-35 -36l21 -22h100l38 27v9l-29 22h-95zM301 380l-43 -20l-1 -11l36 -27h88l35 35l-23 23h-92zM420 344l24 -24l-29 -273
c-2 -13 -9 -25 -19 -34l-45 73l26 214zM336 63l38 -61c-4 -1 -8 -2 -13 -2h-316c-4 0 -7 0 -10 1l62 62h239z" />
    <glyph glyph-name="Z" unicode="Z" 
d="M437 700c3 0 5 0 8 -1l-45 -64h-252l-39 64c3 0 7 1 11 1h317zM375 619l-63 -119l-50 -129l60 28l69 125l11 95h-27zM162 296l-71 -130l-13 -94h31l69 161l40 89zM336 63l38 -61c-4 -1 -8 -2 -13 -2h-316c-4 0 -7 0 -10 1l62 62h239z" />
    <glyph glyph-name="a" unicode="a" 
d="M142 619l-7 -85l55 -141l39 -22l-10 103l-50 145h-27zM244 619l-10 -139l5 -149l-35 -89l-29 -170h58l22 224l-7 70l53 140l7 113h-64zM375 619l-63 -119l-50 -129l60 28l69 125l11 95h-27z" />
    <glyph glyph-name="b" unicode="b" 
d="M86 688l44 -72l-27 -228l-34 -34l-31 31l29 268c1 14 9 26 19 35zM105 380l-35 -36l21 -22h100l38 27v9l-29 22h-95zM301 380l-43 -20l-1 -11l36 -27h88l35 35l-23 23h-92zM420 344l24 -24l-29 -273c-2 -13 -9 -25 -19 -34l-45 73l26 214zM66 335l28 -27l-29 -242
l-53 -53c-8 9 -12 21 -11 34l27 250zM336 63l38 -61c-4 -1 -8 -2 -13 -2h-316c-4 0 -7 0 -10 1l62 62h239z" />
    <glyph glyph-name="c" unicode="c" 
d="M400 635h-252l-39 64c3 0 7 1 11 1h317c3 0 5 0 8 -1zM103 388l-34 -34l-31 31l29 268c1 14 9 26 19 35l44 -72zM468 688c8 -9 13 -21 12 -35l-28 -262l-28 -28l-36 35l26 214zM312 500l63 119h27l-11 -95l-69 -125l-60 -28zM377 300l43 44l24 -24l-29 -273
c-2 -13 -9 -25 -19 -34l-45 73zM94 308l-29 -242l-53 -53c-8 9 -12 21 -11 34l27 250l38 38zM78 72l13 94l71 130l56 26l-40 -89l-69 -161h-31zM97 63h239l38 -61c-4 -1 -8 -2 -13 -2h-316c-4 0 -7 0 -10 1z" />
    <glyph glyph-name="d" unicode="d" 
d="M468 688c8 -9 13 -21 12 -35l-28 -262l-28 -28l-36 35l26 214zM105 380l-35 -36l21 -22h100l38 27v9l-29 22h-95zM301 380l-43 -20l-1 -11l36 -27h88l35 35l-23 23h-92zM420 344l24 -24l-29 -273c-2 -13 -9 -25 -19 -34l-45 73l26 214zM66 335l28 -27l-29 -242l-53 -53
c-8 9 -12 21 -11 34l27 250zM336 63l38 -61c-4 -1 -8 -2 -13 -2h-316c-4 0 -7 0 -10 1l62 62h239z" />
    <glyph glyph-name="e" unicode="e" 
d="M437 700c3 0 5 0 8 -1l-45 -64h-252l-39 64c3 0 7 1 11 1h317zM142 619l-7 -85l55 -141l39 -22l-10 103l-50 145h-27zM162 296l-71 -130l-13 -94h31l69 161l40 89zM336 63l38 -61c-4 -1 -8 -2 -13 -2h-316c-4 0 -7 0 -10 1l62 62h239z" />
    <glyph glyph-name="f" unicode="f" 
d="M391 524l-69 -125l-60 -28l50 129l63 119h27zM393 380l23 -23l-35 -35h-88l-36 27l1 11l43 20h92zM262 325c1 -4 42 -25 42 -25l47 -138l-12 -90h-29l-44 191z" />
    <glyph glyph-name="g" unicode="g" 
d="M142 619l-7 -85l55 -141l39 -22l-10 103l-50 145h-27zM105 380l-35 -36l21 -22h100l38 27v9l-29 22h-95zM162 296l-71 -130l-13 -94h31l69 161l40 89z" />
    <glyph glyph-name="h" unicode="h" 
d="M468 688c8 -9 13 -21 12 -35l-28 -262l-28 -28l-36 35l26 214zM244 619l-10 -139l5 -149l-35 -89l-29 -170h58l22 224l-7 70l53 140l7 113h-64zM420 344l24 -24l-29 -273c-2 -13 -9 -25 -19 -34l-45 73l26 214z" />
    <glyph glyph-name="i" unicode="i" 
d="M86 688l44 -72l-27 -228l-34 -34l-31 31l29 268c1 14 9 26 19 35zM66 335l28 -27l-29 -242l-53 -53c-8 9 -12 21 -11 34l27 250z" />
    <glyph glyph-name="j" unicode="j" 
d="M310 72l-44 191l-4 62c1 -4 42 -25 42 -25l47 -138l-12 -90h-29zM178 233l-69 -161h-31l13 94l71 130l56 26zM336 63l38 -61c-4 -1 -8 -2 -13 -2h-316c-4 0 -7 0 -10 1l62 62h239z" />
    <glyph glyph-name="k" unicode="k" 
d="M437 700c3 0 5 0 8 -1l-45 -64h-252l-39 64c3 0 7 1 11 1h317zM142 619l-7 -85l55 -141l39 -22l-10 103l-50 145h-27zM105 380l-35 -36l21 -22h100l38 27v9l-29 22h-95zM301 380l-43 -20l-1 -11l36 -27h88l35 35l-23 23h-92zM420 344l24 -24l-29 -273
c-2 -13 -9 -25 -19 -34l-45 73l26 214zM66 335l28 -27l-29 -242l-53 -53c-8 9 -12 21 -11 34l27 250zM336 63l38 -61c-4 -1 -8 -2 -13 -2h-316c-4 0 -7 0 -10 1l62 62h239z" />
    <glyph glyph-name="l" unicode="l" 
d="M468 688c8 -9 13 -21 12 -35l-28 -262l-28 -28l-36 35l26 214zM420 344l24 -24l-29 -273c-2 -13 -9 -25 -19 -34l-45 73l26 214z" />
    <glyph glyph-name="m" unicode="m" 
 />
    <glyph glyph-name="n" unicode="n" 
 />
    <glyph glyph-name="o" unicode="o" 
 />
    <glyph glyph-name="p" unicode="p" 
 />
    <glyph glyph-name="q" unicode="q" 
 />
    <glyph glyph-name="r" unicode="r" 
 />
    <glyph glyph-name="s" unicode="s" 
 />
    <glyph glyph-name="t" unicode="t" 
 />
    <glyph glyph-name="u" unicode="u" 
 />
    <glyph glyph-name="v" unicode="v" 
 />
    <glyph glyph-name="w" unicode="w" 
 />
    <glyph glyph-name="x" unicode="x" 
 />
    <glyph glyph-name="y" unicode="y" 
 />
    <glyph glyph-name="z" unicode="z" 
 />
    <glyph glyph-name="zero" unicode="0" 
d="M437 700c3 0 5 0 8 -1l-45 -64h-252l-39 64c3 0 7 1 11 1h317zM86 688l44 -72l-27 -228l-34 -34l-31 31l29 268c1 14 9 26 19 35zM468 688c8 -9 13 -21 12 -35l-28 -262l-28 -28l-36 35l26 214zM420 344l24 -24l-29 -273c-2 -13 -9 -25 -19 -34l-45 73l26 214zM66 335
l28 -27l-29 -242l-53 -53c-8 9 -12 21 -11 34l27 250zM336 63l38 -61c-4 -1 -8 -2 -13 -2h-316c-4 0 -7 0 -10 1l62 62h239z" />
    <glyph glyph-name="one" unicode="1" 
d="M468 688c8 -9 13 -21 12 -35l-28 -262l-28 -28l-36 35l26 214zM420 344l24 -24l-29 -273c-2 -13 -9 -25 -19 -34l-45 73l26 214z" />
    <glyph glyph-name="two" unicode="2" 
d="M437 700c3 0 5 0 8 -1l-45 -64h-252l-39 64c3 0 7 1 11 1h317zM468 688c8 -9 13 -21 12 -35l-28 -262l-28 -28l-36 35l26 214zM105 380l-35 -36l21 -22h100l38 27v9l-29 22h-95zM301 380l-43 -20l-1 -11l36 -27h88l35 35l-23 23h-92zM66 335l28 -27l-29 -242l-53 -53
c-8 9 -12 21 -11 34l27 250zM336 63l38 -61c-4 -1 -8 -2 -13 -2h-316c-4 0 -7 0 -10 1l62 62h239z" />
    <glyph glyph-name="three" unicode="3" 
d="M437 700c3 0 5 0 8 -1l-45 -64h-252l-39 64c3 0 7 1 11 1h317zM468 688c8 -9 13 -21 12 -35l-28 -262l-28 -28l-36 35l26 214zM105 380l-35 -36l21 -22h100l38 27v9l-29 22h-95zM301 380l-43 -20l-1 -11l36 -27h88l35 35l-23 23h-92zM420 344l24 -24l-29 -273
c-2 -13 -9 -25 -19 -34l-45 73l26 214zM336 63l38 -61c-4 -1 -8 -2 -13 -2h-316c-4 0 -7 0 -10 1l62 62h239z" />
    <glyph glyph-name="four" unicode="4" 
d="M86 688l44 -72l-27 -228l-34 -34l-31 31l29 268c1 14 9 26 19 35zM468 688c8 -9 13 -21 12 -35l-28 -262l-28 -28l-36 35l26 214zM105 380l-35 -36l21 -22h100l38 27v9l-29 22h-95zM301 380l-43 -20l-1 -11l36 -27h88l35 35l-23 23h-92zM420 344l24 -24l-29 -273
c-2 -13 -9 -25 -19 -34l-45 73l26 214z" />
    <glyph glyph-name="five" unicode="5" 
d="M437 700c3 0 5 0 8 -1l-45 -64h-252l-39 64c3 0 7 1 11 1h317zM86 688l44 -72l-27 -228l-34 -34l-31 31l29 268c1 14 9 26 19 35zM105 380l-35 -36l21 -22h100l38 27v9l-29 22h-95zM301 380l-43 -20l-1 -11l36 -27h88l35 35l-23 23h-92zM420 344l24 -24l-29 -273
c-2 -13 -9 -25 -19 -34l-45 73l26 214zM336 63l38 -61c-4 -1 -8 -2 -13 -2h-316c-4 0 -7 0 -10 1l62 62h239z" />
    <glyph glyph-name="six" unicode="6" 
d="M437 700c3 0 5 0 8 -1l-45 -64h-252l-39 64c3 0 7 1 11 1h317zM86 688l44 -72l-27 -228l-34 -34l-31 31l29 268c1 14 9 26 19 35zM105 380l-35 -36l21 -22h100l38 27v9l-29 22h-95zM301 380l-43 -20l-1 -11l36 -27h88l35 35l-23 23h-92zM420 344l24 -24l-29 -273
c-2 -13 -9 -25 -19 -34l-45 73l26 214zM66 335l28 -27l-29 -242l-53 -53c-8 9 -12 21 -11 34l27 250zM336 63l38 -61c-4 -1 -8 -2 -13 -2h-316c-4 0 -7 0 -10 1l62 62h239z" />
    <glyph glyph-name="seven" unicode="7" 
d="M437 700c3 0 5 0 8 -1l-45 -64h-252l-39 64c3 0 7 1 11 1h317zM468 688c8 -9 13 -21 12 -35l-28 -262l-28 -28l-36 35l26 214zM420 344l24 -24l-29 -273c-2 -13 -9 -25 -19 -34l-45 73l26 214z" />
    <glyph glyph-name="eight" unicode="8" 
d="M437 700c3 0 5 0 8 -1l-45 -64h-252l-39 64c3 0 7 1 11 1h317zM86 688l44 -72l-27 -228l-34 -34l-31 31l29 268c1 14 9 26 19 35zM468 688c8 -9 13 -21 12 -35l-28 -262l-28 -28l-36 35l26 214zM105 380l-35 -36l21 -22h100l38 27v9l-29 22h-95zM301 380l-43 -20l-1 -11
l36 -27h88l35 35l-23 23h-92zM420 344l24 -24l-29 -273c-2 -13 -9 -25 -19 -34l-45 73l26 214zM66 335l28 -27l-29 -242l-53 -53c-8 9 -12 21 -11 34l27 250zM336 63l38 -61c-4 -1 -8 -2 -13 -2h-316c-4 0 -7 0 -10 1l62 62h239z" />
    <glyph glyph-name="nine" unicode="9" 
d="M437 700c3 0 5 0 8 -1l-45 -64h-252l-39 64c3 0 7 1 11 1h317zM86 688l44 -72l-27 -228l-34 -34l-31 31l29 268c1 14 9 26 19 35zM468 688c8 -9 13 -21 12 -35l-28 -262l-28 -28l-36 35l26 214zM105 380l-35 -36l21 -22h100l38 27v9l-29 22h-95zM301 380l-43 -20l-1 -11
l36 -27h88l35 35l-23 23h-92zM420 344l24 -24l-29 -273c-2 -13 -9 -25 -19 -34l-45 73l26 214zM336 63l38 -61c-4 -1 -8 -2 -13 -2h-316c-4 0 -7 0 -10 1l62 62h239z" />
    <glyph glyph-name="asterisk" unicode="*" 
d="M229 371l-39 22l-55 141l7 85h27l50 -145zM301 506l-53 -140l7 -70l-22 -224h-58l29 170l35 89l-5 149l10 139h64zM322 399l-60 -28l50 129l63 119h27l-11 -95zM191 322h-100l-21 22l35 36h95l29 -22v-9zM393 380l23 -23l-35 -35h-88l-36 27l1 11l43 20h92zM262 325
c1 -4 42 -25 42 -25l47 -138l-12 -90h-29l-44 191zM218 322l-40 -89l-69 -161h-31l13 94l71 130z" />
    <glyph glyph-name="backslash" unicode="\" 
d="M169 619l50 -145l10 -103l-39 22l-55 141l7 85h27zM304 300l47 -138l-12 -90h-29l-44 191l-4 62c1 -4 42 -25 42 -25z" />
    <glyph glyph-name="colon" unicode=":" horiz-adv-x="200" 
d="M102 444l11 100h-103l-10 -100h102zM102 194l11 100h-103l-10 -100h102z" />
    <glyph glyph-name="comma" unicode="," 
d="M162 296l-71 -130l-13 -94h31l69 161l40 89z" />
    <glyph glyph-name="exclam" unicode="!" 
d="M244 619l-10 -139l5 -149l-35 -89l-29 -170h58l22 224l-7 70l53 140l7 113h-64zM336 63l38 -61c-4 -1 -8 -2 -13 -2h-316c-4 0 -7 0 -10 1l62 62h239z" />
    <glyph glyph-name="numbersign" unicode="#" 
d="M468 688c8 -9 13 -21 12 -35l-28 -262l-28 -28l-36 35l26 214zM244 619l-10 -139l5 -149l-35 -89l-29 -170h58l22 224l-7 70l53 140l7 113h-64zM105 380l-35 -36l21 -22h100l38 27v9l-29 22h-95zM301 380l-43 -20l-1 -11l36 -27h88l35 35l-23 23h-92zM420 344l24 -24
l-29 -273c-2 -13 -9 -25 -19 -34l-45 73l26 214zM336 63l38 -61c-4 -1 -8 -2 -13 -2h-316c-4 0 -7 0 -10 1l62 62h239z" />
    <glyph glyph-name="period" unicode="." horiz-adv-x="200" 
d="M102 0l11 100h-103l-10 -100h102z" />
    <glyph glyph-name="question" unicode="?" 
d="M437 700c3 0 5 0 8 -1l-45 -64h-252l-39 64c3 0 7 1 11 1h317zM468 688c8 -9 13 -21 12 -35l-28 -262l-28 -28l-36 35l26 214zM105 380l-35 -36l21 -22h100l38 27v9l-29 22h-95zM301 380l-43 -20l-1 -11l36 -27h88l35 35l-23 23h-92zM66 335l28 -27l-29 -242l-53 -53
c-8 9 -12 21 -11 34l27 250z" />
    <glyph glyph-name="quotedbl" unicode="&#x22;" 
d="M86 688l44 -72l-27 -228l-34 -34l-31 31l29 268c1 14 9 26 19 35zM468 688c8 -9 13 -21 12 -35l-28 -262l-28 -28l-36 35l26 214z" />
    <glyph glyph-name="quotesingle" unicode="'" 
d="M375 619l-63 -119l-50 -129l60 28l69 125l11 95h-27z" />
    <glyph glyph-name="slash" unicode="/" 
d="M375 619l-63 -119l-50 -129l60 28l69 125l11 95h-27zM162 296l-71 -130l-13 -94h31l69 161l40 89z" />
    <glyph glyph-name="braceleft" unicode="{" 
d="M301 506l-53 -140l7 -70l-22 -224h-58l29 170l35 89l-5 149l10 139h64zM191 322h-100l-21 22l35 36h95l29 -22v-9zM393 380l23 -23l-35 -35h-88l-36 27l1 11l43 20h92zM66 335l28 -27l-29 -242l-53 -53c-8 9 -12 21 -11 34l27 250zM262 325c1 -4 42 -25 42 -25l47 -138
l-12 -90h-29l-44 191zM218 322l-40 -89l-69 -161h-31l13 94l71 130z" />
    <glyph glyph-name="braceright" unicode="}" 
d="M301 506l-53 -140l7 -70l-22 -224h-58l29 170l35 89l-5 149l10 139h64zM322 399l-60 -28l50 129l63 119h27l-11 -95zM191 322h-100l-21 22l35 36h95l29 -22v-9zM393 380l23 -23l-35 -35h-88l-36 27l1 11l43 20h92zM66 335l28 -27l-29 -242l-53 -53c-8 9 -12 21 -11 34
l27 250zM262 325c1 -4 42 -25 42 -25l47 -138l-12 -90h-29l-44 191zM218 322l-40 -89l-69 -161h-31l13 94l71 130z" />
    <glyph glyph-name="bracketleft" unicode="[" 
d="M375 619h27l-11 -95l-69 -125l-60 -28l50 129zM262 325c1 -4 42 -25 42 -25l47 -138l-12 -90h-29l-44 191z" />
    <glyph glyph-name="bracketright" unicode="]" 
d="M142 619l-7 -85l55 -141l39 -22l-10 103l-50 145h-27zM162 296l-71 -130l-13 -94h31l69 161l40 89z" />
    <glyph glyph-name="parenleft" unicode="(" 
d="M375 619h27l-11 -95l-69 -125l-60 -28l50 129zM262 325c1 -4 42 -25 42 -25l47 -138l-12 -90h-29l-44 191z" />
    <glyph glyph-name="parenright" unicode=")" 
d="M142 619l-7 -85l55 -141l39 -22l-10 103l-50 145h-27zM162 296l-71 -130l-13 -94h31l69 161l40 89z" />
    <glyph glyph-name="hyphen" unicode="-" 
d="M105 380l-35 -36l21 -22h100l38 27v9l-29 22h-95zM301 380l-43 -20l-1 -11l36 -27h88l35 35l-23 23h-92z" />
    <glyph glyph-name="space" unicode=" " horiz-adv-x="600" 
 />
    <glyph glyph-name="dollar" unicode="$" 
d="M437 700c3 0 5 0 8 -1l-45 -64h-252l-39 64c3 0 7 1 11 1h317zM86 688l44 -72l-27 -228l-34 -34l-31 31l29 268c1 14 9 26 19 35zM244 619l-10 -139l5 -149l-35 -89l-29 -170h58l22 224l-7 70l53 140l7 113h-64zM105 380l-35 -36l21 -22h100l38 27v9l-29 22h-95zM301 380
l-43 -20l-1 -11l36 -27h88l35 35l-23 23h-92zM420 344l24 -24l-29 -273c-2 -13 -9 -25 -19 -34l-45 73l26 214zM336 63l38 -61c-4 -1 -8 -2 -13 -2h-316c-4 0 -7 0 -10 1l62 62h239z" />
    <glyph glyph-name="Euro" unicode="&#x20ac;" 
d="M400 635h-252l-39 64c3 0 7 1 11 1h317c3 0 5 0 8 -1zM103 388l-34 -34l-31 31l29 268c1 14 9 26 19 35l44 -72zM468 688c8 -9 13 -21 12 -35l-28 -262l-28 -28l-36 35l26 214zM219 474l10 -103l-39 22l-55 141l7 85h27zM308 619l-7 -113l-53 -140l7 -70l-22 -224h-58
l29 170l35 89l-5 149l10 139h64zM402 619l-11 -95l-69 -125l-60 -28l50 129l63 119h27zM70 344l35 36h95l29 -22v-9l-38 -27h-100zM416 357l-35 -35h-88l-36 27l1 11l43 20h92zM377 300l43 44l24 -24l-29 -273c-2 -13 -9 -25 -19 -34l-45 73zM94 308l-29 -242l-53 -53
c-8 9 -12 21 -11 34l27 250l38 38zM262 325c1 -4 42 -25 42 -25l47 -138l-12 -90h-29l-44 191zM78 72l13 94l71 130l56 26l-40 -89l-69 -161h-31zM97 63h239l38 -61c-4 -1 -8 -2 -13 -2h-316c-4 0 -7 0 -10 1z" />
    <glyph glyph-name="asciitilde" unicode="~" 
d="M375 619l-63 -119l-50 -129l60 28l69 125l11 95h-27zM105 380l-35 -36l21 -22h100l38 27v9l-29 22h-95zM301 380l-43 -20l-1 -11l36 -27h88l35 35l-23 23h-92zM162 296l-71 -130l-13 -94h31l69 161l40 89z" />
    <glyph glyph-name="equal" unicode="=" 
d="M105 380l-35 -36l21 -22h100l38 27v9l-29 22h-95zM301 380l-43 -20l-1 -11l36 -27h88l35 35l-23 23h-92zM336 63l38 -61c-4 -1 -8 -2 -13 -2h-316c-4 0 -7 0 -10 1l62 62h239z" />
    <glyph glyph-name="greater" unicode="&#x3e;" 
d="M229 371l-39 22l-55 141l7 85h27l50 -145zM310 72l-44 191l-4 62c1 -4 42 -25 42 -25l47 -138l-12 -90h-29zM336 63l38 -61c-4 -1 -8 -2 -13 -2h-316c-4 0 -7 0 -10 1l62 62h239z" />
    <glyph glyph-name="less" unicode="&#x3c;" 
d="M375 619l-63 -119l-50 -129l60 28l69 125l11 95h-27zM162 296l-71 -130l-13 -94h31l69 161l40 89zM336 63l38 -61c-4 -1 -8 -2 -13 -2h-316c-4 0 -7 0 -10 1l62 62h239z" />
    <glyph glyph-name="percent" unicode="%" 
d="M130 616l-27 -228l-34 -34l-31 31l29 268c1 14 9 26 19 35zM169 619l50 -145l10 -103l-39 22l-55 141l7 85h27zM391 524l-69 -125l-60 -28l50 129l63 119h27zM105 380h95l29 -22v-9l-38 -27h-100l-21 22zM381 322h-88l-36 27l1 11l43 20h92l23 -23zM420 344l24 -24
l-29 -273c-2 -13 -9 -25 -19 -34l-45 73l26 214zM304 300l47 -138l-12 -90h-29l-44 191l-4 62c1 -4 42 -25 42 -25zM91 166l71 130l56 26l-40 -89l-69 -161h-31z" />
    <glyph glyph-name="plus" unicode="+" 
d="M244 619l-10 -139l5 -149l-35 -89l-29 -170h58l22 224l-7 70l53 140l7 113h-64zM105 380l-35 -36l21 -22h100l38 27v9l-29 22h-95zM301 380l-43 -20l-1 -11l36 -27h88l35 35l-23 23h-92z" />
    <glyph glyph-name="at" unicode="@" 
d="M437 700c3 0 5 0 8 -1l-45 -64h-252l-39 64c3 0 7 1 11 1h317zM86 688l44 -72l-27 -228l-34 -34l-31 31l29 268c1 14 9 26 19 35zM468 688c8 -9 13 -21 12 -35l-28 -262l-28 -28l-36 35l26 214zM142 619l-7 -85l55 -141l39 -22l-10 103l-50 145h-27zM301 380l-43 -20
l-1 -11l36 -27h88l35 35l-23 23h-92zM66 335l28 -27l-29 -242l-53 -53c-8 9 -12 21 -11 34l27 250zM336 63l38 -61c-4 -1 -8 -2 -13 -2h-316c-4 0 -7 0 -10 1l62 62h239z" />
    <glyph glyph-name="ampersand" unicode="&#x26;" 
d="M400 635h-252l-39 64c3 0 7 1 11 1h317c3 0 5 0 8 -1zM142 619h27l50 -145l10 -103l-39 22l-55 141zM402 619l-11 -95l-69 -125l-60 -28l50 129l63 119h27zM191 322h-100l-21 22l35 36h95l29 -22v-9zM377 300l43 44l24 -24l-29 -273c-2 -13 -9 -25 -19 -34l-45 73z
M94 308l-29 -242l-53 -53c-8 9 -12 21 -11 34l27 250l38 38zM262 325c1 -4 42 -25 42 -25l47 -138l-12 -90h-29l-44 191zM97 63h239l38 -61c-4 -1 -8 -2 -13 -2h-316c-4 0 -7 0 -10 1z" />
    <glyph glyph-name="asciicircum" unicode="^" 
d="M304 300l47 -138l-12 -90h-29l-44 191l-4 62c1 -4 42 -25 42 -25zM91 166l71 130l56 26l-40 -89l-69 -161h-31z" />
  </font>
</defs>
</svg>
